<?xml version="1.0" standalone="no"?>
<!DOCTYPE svg PUBLIC "-//W3C//DTD SVG 20010904//EN"
 "http://www.w3.org/TR/2001/REC-SVG-20010904/DTD/svg10.dtd">
<svg version="1.0" xmlns="http://www.w3.org/2000/svg"
 width="700.000000pt" height="700.000000pt" viewBox="0 0 700.000000 700.000000"
 preserveAspectRatio="xMidYMid meet">
<metadata>
Created by potrace 1.11, written by Peter Selinger 2001-2013
</metadata>
<g transform="translate(0.000000,700.000000) scale(0.100000,-0.100000)"
fill="#000000" stroke="none">
<path d="M3335 6993 c-31 -4 -213 -33 -230 -37 -5 -2 -23 -6 -40 -10 -609
-151 -1109 -655 -1261 -1269 -13 -54 -27 -117 -30 -140 -3 -23 -8 -53 -11 -67
-9 -49 -11 -356 -3 -410 5 -30 11 -71 13 -90 26 -186 113 -424 226 -618 198
-339 552 -626 932 -756 188 -64 336 -87 644 -100 72 -3 144 -8 160 -11 17 -3
55 -10 85 -16 30 -6 68 -13 84 -15 65 -12 248 -79 351 -128 201 -96 339 -196
500 -360 130 -133 218 -258 305 -431 139 -278 190 -504 185 -815 -3 -176 -6
-206 -30 -321 -32 -151 -82 -295 -156 -441 -21 -44 -39 -83 -39 -87 0 -5 108
-8 239 -8 233 0 240 1 249 21 73 161 139 409 165 628 18 143 13 442 -9 550 -2
13 -9 51 -14 85 -6 33 -21 103 -34 155 -172 661 -656 1213 -1289 1472 -245
100 -475 149 -758 161 -205 8 -265 14 -358 36 -257 60 -466 178 -651 368 -177
181 -293 400 -347 651 -25 119 -24 489 2 530 2 4 7 22 10 41 19 109 109 309
198 438 66 98 230 262 328 328 147 100 315 173 489 210 118 25 401 25 517 0
269 -58 480 -173 668 -363 111 -113 105 -105 163 -191 78 -115 169 -322 188
-426 2 -17 7 -33 9 -37 2 -4 7 -31 11 -61 4 -30 8 -63 9 -74 2 -11 4 -46 4
-77 l1 -58 221 0 222 0 -7 98 c-9 148 -31 274 -67 396 -190 639 -728 1117
-1384 1231 -92 16 -380 27 -460 18z"/>
<path d="M3447 6124 c-1 -1 -26 -5 -56 -9 -291 -37 -563 -254 -682 -545 -163
-401 5 -867 391 -1085 329 -186 715 -127 994 150 108 107 171 210 218 360 30
92 32 111 33 240 0 155 -4 190 -35 285 -62 189 -194 360 -360 465 -69 44 -175
94 -215 101 -14 2 -35 8 -48 13 -37 14 -230 34 -240 25z m168 -453 c132 -32
254 -148 300 -285 18 -53 24 -167 12 -230 -12 -63 -65 -161 -115 -211 -174
-173 -450 -175 -621 -3 -173 175 -169 452 9 622 113 108 257 145 415 107z"/>
<path d="M2189 2575 c-2 -147 0 -377 4 -381 2 -3 101 -6 218 -7 l214 -2 0
-868 c0 -478 -4 -871 -8 -874 -5 -3 -293 -5 -640 -5 -348 1 -639 -1 -648 -4
-15 -4 -17 -28 -17 -219 l0 -215 2189 0 2188 0 -2 217 -2 218 -643 2 c-353 0
-648 3 -655 6 -9 3 -12 197 -12 873 l0 869 215 3 c117 1 216 4 218 7 3 3 5
241 3 390 l-1 40 -1310 0 -1310 0 -1 -50z m1747 -1262 c1 -480 -2 -873 -5
-873 -9 -1 -823 -1 -847 -1 l-21 1 0 868 c0 477 1 870 4 874 2 4 198 6 436 5
l432 -2 1 -872z"/>
<path d="M1315 1673 c4 -109 13 -202 25 -268 5 -27 11 -61 14 -75 23 -136 122
-444 148 -461 13 -9 478 -5 478 3 -1 4 -25 58 -55 120 -113 235 -172 481 -175
726 l0 42 -219 0 -219 0 3 -87z"/>
</g>
</svg>
